<?xml version="1.0" encoding="UTF-8"?>
<svg width="40px" height="40px" viewBox="0 0 40 40" version="1.1" xmlns="http://www.w3.org/2000/svg" xmlns:xlink="http://www.w3.org/1999/xlink">
    <title>顶</title>
    <g id="页面-1" stroke="none" stroke-width="1" fill="none" fill-rule="evenodd">
        <g id="反诈1备份" transform="translate(-394.000000, -775.000000)" fill-rule="nonzero">
            <g id="顶" transform="translate(393.000000, 775.000000)">
                <rect id="矩形" fill="#000000" opacity="0" x="0" y="0" width="40" height="40"></rect>
                <path d="M33.5625,5 L33.5625,33 L20.53125,26.7777778 L7.5,33 L7.5,5 L33.5625,5 Z M24.1291391,19.7019868 L23.2682119,20.5231788 C24.2483444,21.3178808 25.0298013,22.0596026 25.5860927,22.7483444 L26.5,21.8344371 C25.8642384,21.1192053 25.0695364,20.4172185 24.1291391,19.7019868 Z M23.4933775,15.1456954 L22.2615894,15.1456954 L22.2615894,17.4900662 C22.2086093,18.5496689 21.9172185,19.4238411 21.4139073,20.0860927 C20.910596,20.7086093 19.9569536,21.2251656 18.5264901,21.6357616 L19.2019868,22.7086093 C20.6854305,22.2715232 21.7450331,21.6622517 22.4072848,20.8807947 C23.0695364,20.0331126 23.4403974,18.9072848 23.4933775,17.4900662 L23.4933775,15.1456954 Z M19.1887417,11 L14.5,11 L14.5,12.218543 L16.4337748,12.218543 L16.4337748,20.8940397 C16.4337748,21.2649007 16.2748344,21.4503311 15.9701987,21.4503311 C15.5728477,21.4503311 15.1357616,21.4238411 14.6854305,21.3708609 L14.9635762,22.5629139 L16.4072848,22.5629139 C17.2682119,22.5629139 17.705298,22.1125828 17.705298,21.2119205 L17.705298,12.218543 L19.1887417,12.218543 L19.1887417,11 Z M26.3543046,11 L19.5728477,11 L19.5728477,12.218543 L22.2615894,12.218543 C22.2218543,12.602649 22.1688742,12.9735099 22.115894,13.3443709 L19.8642384,13.3443709 L19.8642384,19.7682119 L21.0960265,19.7682119 L21.0960265,14.4966887 L24.7649007,14.4966887 L24.7649007,19.7549669 L25.9966887,19.7549669 L25.9966887,13.3443709 L23.3874172,13.3443709 C23.4403974,12.986755 23.4933775,12.615894 23.5463576,12.218543 L26.3543046,12.218543 L26.3543046,11 Z" id="形状结合" fill="#5C7FDF"></path>
            </g>
        </g>
    </g>
</svg>