<?xml version="1.0" encoding="UTF-8"?>
<svg width="41px" height="40px" viewBox="0 0 41 40" version="1.1" xmlns="http://www.w3.org/2000/svg" xmlns:xlink="http://www.w3.org/1999/xlink">
    <title>导航备份</title>
    <g id="页面-1" stroke="none" stroke-width="1" fill="none" fill-rule="evenodd">
        <g id="反诈1备份" transform="translate(-220.000000, -1222.000000)" fill="#4A90E2" fill-rule="nonzero">
            <g id="导航备份" transform="translate(220.660000, 1222.000000)">
                <rect id="矩形" opacity="0" x="0" y="0" width="40" height="40"></rect>
                <path d="M19.4999762,4.5 C24.461499,4.5 28.5,8.58740185 28.5,13.6144913 C28.5,16.0477687 27.5624329,18.3374633 25.8629376,20.0561107 L19.4999762,26.5 L13.1370147,20.0561107 C11.4375671,18.3350003 10.5,16.0477687 10.5,13.6144913 C10.5,8.58740185 14.5384533,4.5 19.4999762,4.5 Z M20,10.5 C19.3455927,10.5 18.6949941,10.7695339 18.2322409,11.2322825 C17.7693412,11.6949823 17.5,12.3455747 17.5,13.0000244 C17.5,13.6546207 17.7693412,14.3050176 18.2322409,14.7677663 C18.6949941,15.2306614 19.3455927,15.5 20,15.5 C20.6546026,15.5 21.3050548,15.2306614 21.7677591,14.7677663 C22.2307076,14.3050176 22.5,13.6546207 22.5,13.0000244 C22.5,12.3455747 22.2307076,11.6949823 21.7677591,11.2322825 C21.3050548,10.7695339 20.6546026,10.5 20,10.5 Z" id="形状结合"></path>
                <path d="M32.4015618,23.880403 L30.5943079,25.6580914 C31.7778444,26.4099422 32.4779314,27.2507303 32.4779314,28.0593527 C32.4779314,30.3522231 27.1083668,32.9136872 19.9216289,32.9136872 C12.7350836,32.9136872 7.36532635,30.3522231 7.36532635,28.0593527 C7.36532635,27.1767684 8.17905286,26.2545546 9.57431532,25.4510363 L7.93732808,23.5501261 C6.02423531,24.7753626 4.8999743,26.3262053 4.8999743,28.0568969 C4.8999743,32.2282867 11.3569152,35.3766316 19.9216289,35.3766316 C28.4865352,35.3766316 34.9432835,32.2306943 34.9432835,28.0568969 C34.9408277,26.4814003 34.013895,25.0490606 32.4015618,23.880403 L32.4015618,23.880403 Z" id="路径"></path>
            </g>
        </g>
    </g>
</svg>