<?xml version="1.0" encoding="UTF-8"?>
<svg width="41px" height="40px" viewBox="0 0 41 40" version="1.1" xmlns="http://www.w3.org/2000/svg" xmlns:xlink="http://www.w3.org/1999/xlink">
    <title>联系</title>
    <g id="页面-1" stroke="none" stroke-width="1" fill="none" fill-rule="evenodd">
        <g id="反诈1备份" transform="translate(-161.000000, -1222.000000)" fill="#7ED321" fill-rule="nonzero">
            <g id="联系" transform="translate(161.330000, 1222.000000)">
                <rect id="矩形" opacity="0" x="0" y="0" width="40" height="40"></rect>
                <path d="M20,31.6666667 C13.5566779,31.6666667 8.33333332,26.4433221 8.33333332,20 C8.33333332,13.5566779 13.5566779,8.33333332 20,8.33333332 C26.4433221,8.33333332 31.6666667,13.5566779 31.6666667,20 C31.6666667,26.4433221 26.4433221,31.6666667 20,31.6666667 Z M20,26.6666667 C23.6833333,26.6666667 26.6666667,23.88 26.6666667,22.5 C26.6666667,21.12 23.6833334,23.3333333 20,23.3333333 C16.3166666,23.3333333 13.3333333,21.12 13.3333333,22.5 C13.3333333,23.88 16.3166666,26.6666667 20,26.6666667 Z" id="形状"></path>
                <path d="M28.1466667,35.115 C27.6969469,36.2111645 26.5395335,36.8411026 25.374836,36.6236067 C24.2101386,36.4061109 23.3580693,35.4009216 23.3342584,34.2163298 C23.3104475,33.0317381 24.1214353,31.9931205 25.2764519,31.7289972 C26.4314686,31.4648739 27.613261,32.0477928 28.1066667,33.125 C31.84,30.365 34.1666667,25.8183333 34.1666667,20.825 C34.1666667,12.5383333 27.8133333,5.83333332 20,5.83333332 C12.1866667,5.83333332 5.83333332,12.5366666 5.83333332,20.8266667 C5.83293934,22.543443 6.11099386,24.2489191 6.65666668,25.8766667 C6.76180758,26.1611716 6.70406432,26.480336 6.50590574,26.709968 C6.30774716,26.9395999 6.00047009,27.0434316 5.70364101,26.9810606 C5.40681194,26.9186895 5.16731155,26.6999664 5.07833332,26.41 C4.91949502,25.9406503 4.78103228,25.4646499 4.66333332,24.9833333 C3.02326756,24.8185722 1.74989072,23.4798272 1.66736963,21.8335732 C1.58484855,20.1873192 2.71796522,18.7279449 4.33333332,18.4 C5.45,10.3566667 12.03,4.16666668 20,4.16666668 C27.97,4.16666668 34.55,10.3566667 35.6666667,18.4 C37.2821326,18.7285313 38.4148086,20.1886066 38.3314454,21.835031 C38.2480821,23.4814554 36.9737212,24.8196554 35.3333333,24.9833333 C34.3033333,29.2066666 31.725,32.8533333 28.1466667,35.115 Z" id="路径"></path>
            </g>
        </g>
    </g>
</svg>