<?xml version="1.0" encoding="UTF-8"?>
<svg width="40px" height="40px" viewBox="0 0 40 40" version="1.1" xmlns="http://www.w3.org/2000/svg" xmlns:xlink="http://www.w3.org/1999/xlink">
    <title>帮助</title>
    <g id="页面-1" stroke="none" stroke-width="1" fill="none" fill-rule="evenodd">
        <g id="反诈1备份" transform="translate(-102.000000, -1222.000000)" fill="#F5A623" fill-rule="nonzero">
            <g id="帮助" transform="translate(102.000000, 1222.000000)">
                <rect id="矩形" opacity="0" x="0" y="0" width="40" height="40"></rect>
                <g id="编组-2" transform="translate(5.000000, 4.000000)">
                    <path d="M26.6251316,0 C27.894759,0 28.9286466,1.0338876 28.9286466,2.30351505 L28.9286466,2.30351505 L28.9288819,2.50148895 C28.9289199,2.53342023 28.9289621,2.56894377 28.9290083,2.60786001 L28.929975,3.42110965 C28.9300556,3.48896361 28.9301391,3.55921241 28.9302252,3.63165649 L28.9307713,4.0910677 C28.9308669,4.1714946 28.9309646,4.25371763 28.9310642,4.33753723 L28.9316829,4.858017 C28.9317891,4.94742457 28.9318968,5.03802956 28.9320057,5.1296324 L28.9326713,5.68962713 C28.932784,5.7844231 28.9328974,5.87981778 28.9330112,5.9756116 L28.9336982,6.55356767 C28.933813,6.65015977 28.9339278,6.74675188 28.9340424,6.84314441 L28.934725,7.41750821 C28.9348377,7.51230418 28.9349497,7.60650144 28.9350607,7.69990042 L28.9357135,8.24911834 C28.9358198,8.33852591 28.9359246,8.42673605 28.9360278,8.51354921 L28.9369052,9.25176036 C28.9369963,9.32839541 28.937085,9.40303477 28.9371711,9.47547885 L28.9378692,10.0628147 C28.9379375,10.120291 28.9380025,10.1749733 28.938064,10.2266621 L28.9387497,10.8036203 C28.9387497,10.6823827 28.490844,10.3321406 28.4133867,10.2479478 C28.0732477,9.88760261 27.7364765,9.520522 27.3896022,9.16354452 C26.9955799,8.75941907 26.6588087,8.51020838 26.1536519,8.9075984 C25.6687013,9.29151758 25.2544727,9.8303515 24.8200379,10.2715218 C22.8802357,12.2483688 20.9370659,14.2252157 18.993896,16.2020627 C16.91265,18.3203536 14.8280362,20.4420122 12.7467901,22.5603031 C11.9823195,23.3382446 11.1774363,24.1161861 10.4937908,24.9648495 C9.82698379,25.7933067 9.54746369,26.8676068 9.54409598,26.8676068 L9.54409598,26.8676068 L8.34519049,31.3635024 L2.30351505,31.333193 C1.0338876,31.333193 0,30.2993054 0,29.029678 L0,29.029678 L0,2.30351505 C0,1.0338876 1.0338876,0 2.30351505,0 L2.30351505,0 Z M13.9878387,10.37 L5.10618591,10.37 L4.98956479,10.3767277 C4.4922261,10.4344928 4.10618591,10.8571642 4.10618591,11.37 C4.10618591,11.9222847 4.55390116,12.37 5.10618591,12.37 L5.10618591,12.37 L13.9878387,12.37 L14.1044599,12.3632723 C14.6017986,12.3055072 14.9878387,11.8828358 14.9878387,11.37 C14.9878387,10.8177153 14.5401235,10.37 13.9878387,10.37 L13.9878387,10.37 Z M13.9878387,5.87092972 L5.10618591,5.87092972 L4.98956479,5.87765745 C4.4922261,5.93542256 4.10618591,6.35809388 4.10618591,6.87092972 C4.10618591,7.42321447 4.55390116,7.87092972 5.10618591,7.87092972 L5.10618591,7.87092972 L13.9878387,7.87092972 L14.1044599,7.86420199 C14.6017986,7.80643688 14.9878387,7.38376556 14.9878387,6.87092972 C14.9878387,6.31864497 14.5401235,5.87092972 13.9878387,5.87092972 L13.9878387,5.87092972 Z" id="形状结合"></path>
                    <path d="M30.4811619,15.6194485 L27.1572301,12.2955167 C26.8036203,11.941907 26.1839613,11.941907 25.8303515,12.2955167 L11.9217007,26.1974321 C11.8644496,26.2546832 11.8206693,26.3287729 11.8004631,26.4062303 L10.409598,31.3938118 C10.3658177,31.5520943 10.4062303,31.7238476 10.5173648,31.8450852 C10.608293,31.9427489 10.736266,32 10.8676068,32 C10.8979162,32 10.9248579,31.9966323 10.9551673,31.9932646 L16.3266681,30.9863187 C16.420964,30.9694801 16.5085245,30.9223321 16.5758788,30.8549779 L30.4845296,16.9496948 C30.8482425,16.5826142 30.8482425,15.9865292 30.4811619,15.6194485 Z M28.3291939,18.3776047 C28.1507051,18.5560935 27.871185,18.5661966 27.7027994,18.397811 L24.385603,15.0806146 C24.2172174,14.912229 24.2273206,14.6327089 24.4058093,14.4542202 C24.584298,14.2757314 24.8671859,14.2656283 25.0322037,14.4340139 L28.3494001,17.7512103 C28.5177857,17.9162282 28.5076826,18.199116 28.3291939,18.3776047 Z" id="形状"></path>
                </g>
            </g>
        </g>
    </g>
</svg>