<?xml version="1.0" encoding="UTF-8"?>
<svg width="41px" height="40px" viewBox="0 0 41 40" version="1.1" xmlns="http://www.w3.org/2000/svg" xmlns:xlink="http://www.w3.org/1999/xlink">
    <title>老人-实备份</title>
    <g id="页面-1" stroke="none" stroke-width="1" fill="none" fill-rule="evenodd">
        <g id="反诈1备份" transform="translate(-279.000000, -1222.000000)" fill="#8576DA" fill-rule="nonzero">
            <g id="老人-实备份" transform="translate(279.990000, 1222.000000)">
                <rect id="矩形" opacity="0" x="0" y="0" width="40" height="40"></rect>
                <path d="M16.5952,15.52 C17.3568,15.296 18.1632,15.52 18.7008,16.0576 L18.7008,16.0576 L27.056,24.4352 C27.0784,24.4576 27.1008,24.5024 27.1232,24.5248 C27.5488,24.3456 27.9744,24.256 28.4448,24.256 C30.304,24.256 31.8272,25.7792 31.7824,27.6608 L31.7824,27.6608 L31.7824,34.8288 L29.3184,34.8288 L29.3184,27.6608 C29.3184,27.168 28.9152,26.7424 28.4,26.7424 C27.9072,26.7424 27.4816,27.1456 27.4816,27.6608 L27.4816,27.6608 L27.4816,27.9744 L27.4592,27.9744 C27.3248,28.6464 26.7648,29.1392 26.0928,29.2064 C25.2416,29.296 24.5024,28.6688 24.4128,27.8176 C24.2784,27.728 24.1216,27.616 23.9872,27.4816 L23.9872,27.4816 L23.1808,26.6752 L23.1808,34.8288 L7.12,34.8288 C6.9856,34 7.12,33.5968 7.12,32.7232 C7.12,26.5184 10.6144,19.0368 15.744,15.9456 C15.968,15.744 16.2144,15.6096 16.5056,15.52 C16.528,15.52 16.5504,15.52 16.5728,15.4976 L16.5728,15.4976 Z M19.3504,7.456 C20.1792,6.1568 26.6752,4.7456 27.504,5.2384 C28.1088,5.5968 28.8704,6.3808 29.0272,6.56 L29.0272,6.56 L29.0432667,6.57884699 L29.0944,6.6272 C29.1073684,6.64665263 29.1175213,6.66141274 29.1242475,6.6713445 L30.4832,8.2176 L30.7744,8.1504 C31.2448,8.0384 32.768,8.6656 32.9024,9.1584 C33.0368,9.6512 32.7456,10.144 32.2528,10.2784 L32.2528,10.2784 L29.968,10.9056 C30.1696,11.4656 30.2816,12.0928 30.2816,12.6976 C30.2816,15.6544 27.8848,18.0736 24.928,18.0736 C22.352,18.0736 20.1568,16.2368 19.664,13.6832 L19.664,13.6832 L17.7152,14.1984 L17.6928,14.1984 C17.2,14.3328 16.7296,14.0416 16.5952,13.5488 C16.4832,13.056 17.4912,11.7344 17.9616,11.6 L17.9616,11.6 L18.2528,11.5328 L18.768,8.9792 C18.8352,8.688 18.992,8.016 19.3504,7.456 Z" id="形状结合"></path>
            </g>
        </g>
    </g>
</svg>