<?xml version="1.0" encoding="UTF-8"?>
<svg width="52px" height="52px" viewBox="0 0 52 52" version="1.1" xmlns="http://www.w3.org/2000/svg" xmlns:xlink="http://www.w3.org/1999/xlink">
    <title>首页2</title>
    <g id="页面-1" stroke="none" stroke-width="1" fill="none" fill-rule="evenodd">
        <g id="反诈1备份" transform="translate(-120.000000, -965.000000)" fill-rule="nonzero">
            <g id="首页2" transform="translate(120.000000, 965.000000)">
                <rect id="矩形" fill="#000000" opacity="0" x="0" y="0" width="52" height="52"></rect>
                <path d="M23.7345333,4.91313332 C25.0466582,3.7560108 27.0153287,3.75786911 28.3252667,4.91746668 L28.3252667,4.91746668 L44.7642,19.4670667 C45.5075808,20.1249845 45.9333333,21.0700245 45.9333333,22.0627333 L45.9333333,22.0627333 L45.9333333,45.0666667 C45.9333333,46.9812538 44.3812538,48.5333333 42.4666667,48.5333333 L42.4666667,48.5333333 L9.53333332,48.5333333 C7.61874621,48.5333333 6.06666668,46.9812538 6.06666668,45.0666667 L6.06666668,45.0666667 L6.06666668,22.0653333 C6.06666668,21.0704319 6.49401182,20.1234606 7.24013332,19.4653333 L7.24013332,19.4653333 L23.7345333,4.914 Z M26.8666667,28.8322226 C26.3303715,28.5225924 25.6696285,28.5225924 25.1333333,28.8322226 C24.5970381,29.1418528 24.2666667,29.7140729 24.2666667,30.3333333 L24.2666667,30.3333333 L24.2666667,41.5999999 L27.7333333,41.5999999 L27.7333333,30.3333333 C27.7333333,29.7140729 27.4029619,29.1418528 26.8666667,28.8322226 Z" id="形状结合" fill="#DCDCDC"></path>
            </g>
        </g>
    </g>
</svg>