<?xml version="1.0" encoding="UTF-8"?>
<svg width="52px" height="52px" viewBox="0 0 52 52" version="1.1" xmlns="http://www.w3.org/2000/svg" xmlns:xlink="http://www.w3.org/1999/xlink">
    <title>宣传</title>
    <g id="页面-1" stroke="none" stroke-width="1" fill="none" fill-rule="evenodd">
        <g id="反诈1备份" transform="translate(-209.000000, -799.000000)" fill-rule="nonzero">
            <g id="星级" transform="translate(209.000000, 799.000000)">
                <rect id="矩形" fill="#000000" opacity="0" x="0" y="0" width="52" height="52"></rect>
                <path d="M24.5821333,4.25966668 L16.8176667,16.276 L3.926,19.4020667 C2.63726668,19.7140667 2.16233332,21.2992 3.06626668,22.269 L12.4704667,32.3596 L10.8992,46.6102 C10.7466667,47.9934 12.2035333,48.9831333 13.4333333,48.3314 L26.039,41.6554667 L38.6446667,48.3253333 C39.832,48.9536666 41.2533334,48.0488666 41.1857333,46.7064 L40.4664,32.357 L49.0663333,22.2074667 C49.4551365,21.7487586 49.5784237,21.1213144 49.3920901,20.549597 C49.2057565,19.9778796 48.7364269,19.5435806 48.152,19.4020667 L35.256,16.276 L27.4941333,4.25966668 C27.1748474,3.76536716 26.6265851,3.46681643 26.0381333,3.46681643 C25.4496815,3.46681643 24.9014193,3.76536716 24.5821333,4.25966668 Z M26.0372667,8.39366668 L32.3431333,18.1566667 L32.4592667,18.3248 C32.9427233,18.98451 33.6438643,19.4520397 34.4387333,19.6447333 L44.6047333,22.1095333 L37.8196,30.1158 L37.6939333,30.2735333 C37.2065101,30.9217409 36.9617821,31.7203271 37.0023333,32.5303333 L37.57,43.8351333 L27.6596667,38.5918 L27.4672667,38.4964667 C26.4903452,38.0548015 25.3640381,38.0899986 24.4166,38.5918 L14.703,43.7354667 L15.9163333,32.7392 L15.9319333,32.539 C15.9808495,31.6007135 15.6468197,30.6827571 15.0063333,29.9953333 L7.62146668,22.0722667 L17.6349333,19.6456 C18.4980117,19.4362115 19.2478116,18.9035651 19.7296667,18.1575333 L26.0372667,8.39366668 L26.0372667,8.39366668 Z" id="形状" fill="#444444"></path>
                <path d="M17.6176,22.9666667 L23.387,28.7360667 L20.9360667,31.187 L15.1666667,25.4176 C14.7160754,24.9824042 14.5353651,24.337945 14.6939918,23.7319208 C14.8526186,23.1258965 15.3258965,22.6526186 15.9319208,22.4939918 C16.537945,22.3353651 17.1824042,22.5160754 17.6176,22.9666667 L17.6176,22.9666667 Z" id="路径" fill="#346ECF"></path>
            </g>
        </g>
    </g>
</svg>