<?xml version="1.0" encoding="UTF-8"?>
<svg width="52px" height="52px" viewBox="0 0 52 52" version="1.1" xmlns="http://www.w3.org/2000/svg" xmlns:xlink="http://www.w3.org/1999/xlink">
    <title>我的</title>
    <g id="页面-1" stroke="none" stroke-width="1" fill="none" fill-rule="evenodd">
        <g id="反诈1备份" transform="translate(-298.000000, -799.000000)" fill-rule="nonzero">
            <g id="我的" transform="translate(298.000000, 799.000000)">
                <rect id="矩形" fill="#000000" opacity="0" x="0" y="0" width="52" height="52"></rect>
                <path d="M25.9705333,3.46666668 C19.9853333,3.46666668 16.1295333,5.9904 14.2826667,10.2466 C13.1014,12.9696667 12.896,15.8522 13.1707333,18.5683333 L13.2054,18.8612667 C13.5364667,21.4248667 14.8382,24.4859334 16.7024,26.7098 L16.8098667,26.8354667 L7.306,34.8114 C6.52091894,35.4696589 6.06721563,36.4414724 6.06666668,37.466 L6.06666668,45.0666667 C6.06666668,46.9812538 7.61874621,48.5333333 9.53333332,48.5333333 L42.4666667,48.5333333 C44.3812538,48.5333333 45.9333333,46.9812538 45.9333333,45.0666667 L45.9333333,37.4686 L45.9272667,37.2640667 C45.8708357,36.3091555 45.4223383,35.4200015 44.6879333,34.8070667 L35.2906667,26.9654667 L35.4354,26.8068667 C37.3741333,24.5986 38.6074,21.6424 39.0147333,18.6246667 C39.3822,15.886 39.1248,12.7070667 37.8204667,9.95626668 C35.88,5.86126668 31.9566,3.46666668 25.9705333,3.46666668 Z M25.9705333,6.93333332 C30.6384,6.93333332 33.3311333,8.57653332 34.6883333,11.44 C35.659,13.4896667 35.8652666,16.0298667 35.5784,18.1627333 C35.1771333,21.1466666 33.7428,24.0413333 31.6203333,25.6550667 C31.2000865,25.9744809 30.948291,26.4679847 30.9363127,26.9957056 C30.9243344,27.5234266 31.1534787,28.0278469 31.5588,28.366 L42.4666667,37.4694667 L42.4666667,45.0666667 L9.53333332,45.0666667 L9.53333332,37.4668667 L20.5053333,28.2611333 C20.9054931,27.9252639 21.1328179,27.4268237 21.1240727,26.904464 C21.1153275,26.3821042 20.8714452,25.8915529 20.4602667,25.5692667 C18.473,24.011 16.8662,20.6405334 16.6209333,18.2182 C16.3999333,16.0402667 16.5663333,13.6924667 17.4633333,11.6263333 C18.759,8.63893332 21.3633333,6.93333332 25.9705333,6.93333332 Z" id="形状" fill="#444444"></path>
                <path d="M27.7333333,32.9333333 L27.7333333,41.6 L24.2666667,41.6 L24.2666667,32.9333333 C24.2666667,32.3140729 24.5970381,31.7418528 25.1333333,31.4322226 C25.6696285,31.1225924 26.3303715,31.1225924 26.8666667,31.4322226 C27.4029619,31.7418528 27.7333333,32.3140729 27.7333333,32.9333333 L27.7333333,32.9333333 Z" id="路径" fill="#346ECF"></path>
            </g>
        </g>
    </g>
</svg>