<?xml version="1.0" encoding="UTF-8"?>
<svg width="52px" height="52px" viewBox="0 0 52 52" version="1.1" xmlns="http://www.w3.org/2000/svg" xmlns:xlink="http://www.w3.org/1999/xlink">
    <title>宣传1</title>
    <g id="页面-1" stroke="none" stroke-width="1" fill="none" fill-rule="evenodd">
        <g id="反诈1备份" transform="translate(-209.000000, -882.000000)" fill-rule="nonzero">
            <g id="宣传1" transform="translate(209.000000, 882.000000)">
                <rect id="矩形" fill="#000000" opacity="0" x="0" y="0" width="52" height="52"></rect>
                <path d="M26.0381333,3.46681643 C26.6265851,3.46681643 27.1748474,3.76536716 27.4941333,4.25966668 L27.4941333,4.25966668 L35.256,16.276 L48.152,19.4020667 C48.7364269,19.5435806 49.2057565,19.9778796 49.3920901,20.549597 C49.5784237,21.1213144 49.4551365,21.7487586 49.0663333,22.2074667 L49.0663333,22.2074667 L40.4664,32.357 L41.1857333,46.7064 C41.2533334,48.0488666 39.832,48.9536666 38.6446667,48.3253333 L38.6446667,48.3253333 L26.039,41.6554667 L13.4333333,48.3314 C12.2035333,48.9831333 10.7466667,47.9934 10.8992,46.6102 L10.8992,46.6102 L12.4704667,32.3596 L3.06626668,22.269 C2.16233332,21.2992 2.63726668,19.7140667 3.926,19.4020667 L3.926,19.4020667 L16.8176667,16.276 L24.5821333,4.25966668 C24.9014193,3.76536716 25.4496815,3.46681643 26.0381333,3.46681643 Z M17.6176,22.9666667 C17.1824042,22.5160754 16.537945,22.3353651 15.9319208,22.4939918 C15.3258965,22.6526186 14.8526186,23.1258965 14.6939918,23.7319208 C14.5353651,24.337945 14.7160754,24.9824042 15.1666667,25.4176 L15.1666667,25.4176 L20.9360667,31.187 L23.387,28.7360667 Z" id="形状结合" fill="#346ECF"></path>
            </g>
        </g>
    </g>
</svg>