<?xml version="1.0" encoding="UTF-8"?>
<svg width="52px" height="52px" viewBox="0 0 52 52" version="1.1" xmlns="http://www.w3.org/2000/svg" xmlns:xlink="http://www.w3.org/1999/xlink">
    <title>我的2</title>
    <g id="页面-1" stroke="none" stroke-width="1" fill="none" fill-rule="evenodd">
        <g id="反诈1备份" transform="translate(-298.000000, -965.000000)" fill-rule="nonzero">
            <g id="我的2" transform="translate(298.000000, 965.000000)">
                <rect id="矩形" fill="#000000" opacity="0" x="0" y="0" width="52" height="52"></rect>
                <path d="M25.9705333,3.46666668 C31.9566,3.46666668 35.88,5.86126668 37.8204667,9.95626668 C39.1248,12.7070667 39.3822,15.886 39.0147333,18.6246667 C38.6074,21.6424 37.3741333,24.5986 35.4354,26.8068667 L35.4354,26.8068667 L35.2906667,26.9654667 L44.6879333,34.8070667 C45.4223383,35.4200015 45.8708357,36.3091555 45.9272667,37.2640667 L45.9272667,37.2640667 L45.9333333,37.4686 L45.9333333,45.0666667 C45.9333333,46.9812538 44.3812538,48.5333333 42.4666667,48.5333333 L42.4666667,48.5333333 L9.53333332,48.5333333 C7.61874621,48.5333333 6.06666668,46.9812538 6.06666668,45.0666667 L6.06666668,45.0666667 L6.06666668,37.466 C6.06721563,36.4414724 6.52091894,35.4696589 7.306,34.8114 L7.306,34.8114 L16.8098667,26.8354667 L16.7024,26.7098 C14.8382,24.4859334 13.5364667,21.4248667 13.2054,18.8612667 L13.2054,18.8612667 L13.1707333,18.5683333 C12.896,15.8522 13.1014,12.9696667 14.2826667,10.2466 C16.1295333,5.9904 19.9853333,3.46666668 25.9705333,3.46666668 Z M26.8666667,31.4322226 C26.3303715,31.1225924 25.6696285,31.1225924 25.1333333,31.4322226 C24.5970381,31.7418528 24.2666667,32.3140729 24.2666667,32.9333333 L24.2666667,32.9333333 L24.2666667,41.6 L27.7333333,41.6 L27.7333333,32.9333333 C27.7333333,32.3140729 27.4029619,31.7418528 26.8666667,31.4322226 Z" id="形状结合" fill="#DCDCDC"></path>
            </g>
        </g>
    </g>
</svg>